<svg width="3445" height="1166" viewBox="0 0 3445 1166" fill="none" xmlns="http://www.w3.org/2000/svg">
<path d="M1055.55 355.852C945.778 417.751 856.336 239.797 825.336 143.082C912.982 130.383 936.684 240.868 1068.65 256.934C1200.61 273 1192.76 278.478 1055.55 355.852Z" fill="#6A994E"/>
<path d="M131.13 149.646C51.7687 100.044 6.62407 166.026 0.423828 215.628C26.0509 247.455 76.4145 215.628 157.17 335.651C194.609 391.293 230.332 211.648 131.13 149.646Z" fill="#9E2A2B"/>
<path d="M1383.15 556.114C1383.15 641.016 1249.4 602.15 1182.53 572.103C1198.52 640.431 1413.68 750.921 1521.26 713.123C1628.84 675.324 1489.28 448.532 1455.84 428.179C1422.4 407.825 1383.15 449.985 1383.15 556.114Z" fill="#42664E"/>
<path d="M1056.15 749.586C886.83 559.895 826.903 721.411 816.057 741.429C786.469 805.812 860.493 809.152 923.702 809.777C986.911 810.402 1029.5 856.763 1085.32 882.093C1141.14 907.424 1225.48 939.276 1056.15 749.586Z" fill="#FCDFA4"/>
<path d="M1461.34 94.7777C1338.74 73.2281 1272.99 218.023 1328.98 255.528C1448.29 155.583 1445.75 207.65 1542.89 171.069C1640.03 134.487 1614.6 121.715 1461.34 94.7777Z" fill="#9E2A2B"/>
<path d="M1357.59 992.035C1357.59 999.461 1182.47 1164.79 1147.24 1158.35C1088.44 1052.57 1209.36 964.855 1272.23 960.533C1335.1 956.21 1357.59 982.752 1357.59 992.035Z" fill="#9E2A2B"/>
<path d="M370.315 962.864C280.581 825.573 161.024 920.027 154.122 922.308C148.553 922.935 125.387 937.779 107.099 955.005C84.2379 976.536 208.952 968.862 282.974 1057.61C370.224 1162.22 460.048 1100.15 370.315 962.864Z" fill="#EDE8C7"/>
<path d="M271.38 549.548C209.809 584.997 226.318 660.779 252.251 676.922C293.372 634.093 380.115 632.694 410.695 612.584C444.418 590.405 348.344 505.237 271.38 549.548Z" fill="#42664E"/>
<path d="M597.514 44.8711C496.139 198.05 364.503 152.918 311.357 111.205C351.763 99.9752 446.314 67.8097 501.267 28.9861C556.221 -9.83755 588.329 23.3996 597.514 44.8711Z" fill="#F4B942"/>
<path d="M2894.3 810.087C2784.53 748.188 2695.09 926.143 2664.09 1022.86C2751.74 1035.56 2775.44 925.072 2907.4 909.005C3039.36 892.939 3031.52 887.462 2894.3 810.087Z" fill="#6A994E"/>
<path d="M1969.88 1016.29C1890.52 1065.9 1845.38 999.913 1839.18 950.312C1864.8 918.484 1915.17 950.312 1995.92 830.289C2033.36 774.646 2069.09 954.292 1969.88 1016.29Z" fill="#9E2A2B"/>
<path d="M3221.9 609.826C3221.9 524.923 3088.16 563.79 3021.28 593.836C3037.27 525.509 3252.43 415.018 3360.01 452.817C3467.6 490.615 3328.03 717.408 3294.59 737.761C3261.16 758.114 3221.9 715.954 3221.9 609.826Z" fill="#42664E"/>
<path d="M2894.91 416.354C2725.58 606.044 2665.66 444.528 2654.81 424.51C2625.22 360.128 2699.25 356.787 2762.46 356.162C2825.66 355.537 2868.26 309.177 2924.08 283.846C2979.9 258.515 3064.23 226.663 2894.91 416.354Z" fill="#FCDFA4"/>
<path d="M3300.09 1071.16C3177.49 1092.71 3111.74 947.916 3167.73 910.412C3287.04 1010.36 3284.5 958.289 3381.64 994.871C3478.78 1031.45 3453.35 1044.22 3300.09 1071.16Z" fill="#9E2A2B"/>
<path d="M3196.34 173.905C3196.34 166.479 3021.22 1.15355 2985.99 7.58937C2927.2 113.372 3048.12 201.085 3110.99 205.407C3173.85 209.729 3196.34 183.187 3196.34 173.905Z" fill="#9E2A2B"/>
<path d="M2209.07 203.076C2119.34 340.367 1999.78 245.913 1992.88 243.632C1987.31 243.004 1964.14 228.16 1945.85 210.935C1922.99 189.403 2047.71 197.077 2121.73 108.328C2208.98 3.7186 2298.8 65.7848 2209.07 203.076Z" fill="#EDE8C7"/>
<path d="M2110.13 616.391C2048.56 580.942 2065.07 505.161 2091 489.017C2132.13 531.847 2218.87 533.245 2249.45 553.356C2283.17 575.534 2187.1 660.703 2110.13 616.391Z" fill="#42664E"/>
<path d="M2436.27 1121.07C2334.89 967.89 2203.26 1013.02 2150.11 1054.73C2190.52 1065.96 2285.07 1098.13 2340.02 1136.95C2394.97 1175.78 2427.08 1142.54 2436.27 1121.07Z" fill="#F4B942"/>
</svg>
