<svg width="1606" height="1166" viewBox="0 0 1606 1166" fill="none" xmlns="http://www.w3.org/2000/svg">
<path d="M1055.55 355.852C945.778 417.751 856.336 239.797 825.336 143.082C912.982 130.383 936.684 240.868 1068.65 256.934C1200.61 273 1192.76 278.478 1055.55 355.852Z" fill="#6A994E"/>
<path d="M131.13 149.646C51.7687 100.044 6.62407 166.026 0.423828 215.628C26.0509 247.455 76.4145 215.628 157.17 335.651C194.609 391.293 230.332 211.648 131.13 149.646Z" fill="#9E2A2B"/>
<path d="M1383.15 556.114C1383.15 641.016 1249.4 602.15 1182.53 572.103C1198.52 640.431 1413.68 750.921 1521.26 713.123C1628.84 675.324 1489.28 448.532 1455.84 428.179C1422.4 407.825 1383.15 449.985 1383.15 556.114Z" fill="#42664E"/>
<path d="M1056.15 749.586C886.83 559.895 826.903 721.411 816.057 741.429C786.469 805.812 860.493 809.152 923.702 809.777C986.911 810.402 1029.5 856.763 1085.32 882.093C1141.14 907.424 1225.48 939.276 1056.15 749.586Z" fill="#FCDFA4"/>
<path d="M1461.34 94.7777C1338.74 73.2281 1272.99 218.023 1328.98 255.528C1448.29 155.583 1445.75 207.65 1542.89 171.069C1640.03 134.487 1614.6 121.715 1461.34 94.7777Z" fill="#9E2A2B"/>
<path d="M1357.59 992.035C1357.59 999.461 1182.47 1164.79 1147.24 1158.35C1088.44 1052.57 1209.36 964.855 1272.23 960.533C1335.1 956.21 1357.59 982.752 1357.59 992.035Z" fill="#9E2A2B"/>
<path d="M370.315 962.864C280.581 825.573 161.024 920.027 154.122 922.308C148.553 922.935 125.387 937.779 107.099 955.005C84.2379 976.536 208.952 968.862 282.974 1057.61C370.224 1162.22 460.048 1100.15 370.315 962.864Z" fill="#EDE8C7"/>
<path d="M271.38 549.548C209.809 584.997 226.318 660.779 252.251 676.922C293.372 634.093 380.115 632.694 410.695 612.584C444.418 590.405 348.344 505.237 271.38 549.548Z" fill="#42664E"/>
<path d="M597.514 44.8711C496.139 198.05 364.503 152.918 311.357 111.205C351.763 99.9752 446.314 67.8097 501.267 28.9861C556.221 -9.83755 588.329 23.3996 597.514 44.8711Z" fill="#F4B942"/>
</svg>
