<svg width="1440" height="1025" viewBox="0 0 1440 1025" fill="none" xmlns="http://www.w3.org/2000/svg">
<path d="M980.912 320.778C871.141 382.677 781.699 204.723 750.699 108.008C838.345 95.3091 862.047 205.794 994.01 221.86C1125.97 237.926 1118.13 243.404 980.912 320.778Z" fill="#6A994E"/>
<path d="M56.4936 114.572C-22.868 64.9702 -68.0126 130.952 -74.2129 180.553C-48.5858 212.381 1.77775 180.553 82.5337 300.577C119.972 356.219 155.696 176.573 56.4936 114.572Z" fill="#9E2A2B"/>
<path d="M1308.51 521.039C1308.51 605.942 1174.76 567.075 1107.89 537.029C1123.88 605.357 1339.04 715.847 1446.62 678.048C1554.2 640.25 1414.64 413.457 1381.2 393.104C1347.77 372.751 1308.51 414.911 1308.51 521.039Z" fill="#42664E"/>
<path d="M981.518 714.512C812.193 524.821 752.266 686.337 741.42 706.355C711.832 770.738 785.856 774.078 849.065 774.703C912.274 775.328 954.866 821.688 1010.69 847.019C1066.51 872.35 1150.84 904.202 981.518 714.512Z" fill="#FCDFA4"/>
<path d="M1386.7 59.7034C1264.1 38.1538 1198.35 182.949 1254.34 220.454C1373.65 120.509 1371.11 172.576 1468.25 135.994C1565.39 99.4126 1539.96 86.6404 1386.7 59.7034Z" fill="#9E2A2B"/>
<path d="M1282.95 956.96C1282.95 964.387 1107.83 1129.71 1072.6 1123.28C1013.81 1017.49 1134.73 929.78 1197.59 925.458C1260.46 921.136 1282.95 947.678 1282.95 956.96Z" fill="#9E2A2B"/>
<path d="M295.678 927.789C205.945 790.499 86.387 884.952 79.4852 887.234C73.9158 887.861 50.7504 902.705 32.4618 919.93C9.60115 941.462 134.315 933.788 208.337 1022.54C295.587 1127.15 385.411 1065.08 295.678 927.789Z" fill="#EDE8C7"/>
<path d="M196.744 514.474C135.172 549.923 151.681 625.705 177.614 641.848C218.735 599.018 305.478 597.62 336.058 577.509C369.781 555.331 273.708 470.163 196.744 514.474Z" fill="#42664E"/>
<path d="M522.877 9.79688C421.503 162.975 289.867 117.844 236.721 76.1308C277.127 64.901 371.677 32.7355 426.631 -6.08813C481.584 -44.9118 513.692 -11.6746 522.877 9.79688Z" fill="#F4B942"/>
</svg>
