<svg width="25" height="24" viewBox="0 0 25 24" fill="none" xmlns="http://www.w3.org/2000/svg">
<path d="M21.8809 9L21.8809 3M21.8809 3H15.8809M21.8809 3L13.8809 11M10.8809 5H8.68086C7.0007 5 6.16062 5 5.51889 5.32698C4.9544 5.6146 4.49546 6.07354 4.20784 6.63803C3.88086 7.27976 3.88086 8.11984 3.88086 9.8V16.2C3.88086 17.8802 3.88086 18.7202 4.20784 19.362C4.49546 19.9265 4.9544 20.3854 5.51889 20.673C6.16062 21 7.0007 21 8.68086 21H15.0809C16.761 21 17.6011 21 18.2428 20.673C18.8073 20.3854 19.2663 19.9265 19.5539 19.362C19.8809 18.7202 19.8809 17.8802 19.8809 16.2V14" stroke="#333333" stroke-width="2" stroke-linecap="round" stroke-linejoin="round"/>
</svg>
