<svg width="28" height="37" viewBox="0 0 28 37" fill="none" xmlns="http://www.w3.org/2000/svg">
<mask id="mask0_576_25419" style="mask-type:alpha" maskUnits="userSpaceOnUse" x="0" y="0" width="28" height="37">
<path d="M7.15153 36.877H0.65625V0.876953H15.0478C19.0383 0.876953 22.1374 1.87873 24.3449 3.88228C26.5525 5.88583 27.6562 8.91248 27.6562 12.9622C27.6562 16.5004 26.51 19.2713 24.2176 21.2748C21.9676 23.2784 18.911 24.2801 15.0478 24.2801H7.15153V36.877ZM14.1562 6.18424H7.15153V19.4844H14.1562C16.4487 19.4844 18.2954 18.9302 19.6963 17.8219C21.0973 16.7135 21.7978 15.051 21.7978 12.8343C21.7978 10.575 21.0973 8.91248 19.6963 7.84676C18.3379 6.73841 16.4912 6.18424 14.1562 6.18424Z" fill="black"/>
</mask>
<g mask="url(#mask0_576_25419)">
<path d="M-25.7461 -26.6211H12.6653V14.3718H-25.7461V-26.6211Z" fill="#F4B942"/>
<path d="M13.2383 -26.6211H51.6497V14.3718H13.2383V-26.6211Z" fill="#9E2A2B"/>
<path d="M-25.7461 14.873H12.6653V55.8659H-25.7461V14.873Z" fill="#6A994E"/>
<path d="M13.2383 14.873H51.6497V55.8659H13.2383V14.873Z" fill="#42664E"/>
</g>
</svg>
